<svg width="64" height="64" viewBox="0 0 64 64" fill="none" xmlns="http://www.w3.org/2000/svg">
  <rect x="2" y="2" width="60" height="60" rx="14" fill="#EBEFEE"/>
  <path d="M18 42C20.7 45 24.5 46.5 29 46.5C33.3 46.5 36.5 45.4 38.8 43.3C41.1 41.2 42.2 38.7 42.2 35.7C42.2 33.5 41.5 31.7 40.1 30.3C38.7 28.9 36.4 27.8 33.1 27L28.8 26C27.1 25.6 25.8 25.1 24.9 24.5C24 23.9 23.5 23 23.5 21.9C23.5 20.6 24 19.6 25.1 18.8C26.1 18 27.5 17.6 29.3 17.6C32.9 17.6 35.7 19 37.8 21.7L42 18.1C39.1 14.3 34.9 12.4 29.4 12.4C25.2 12.4 21.9 13.5 19.6 15.7C17.3 17.8 16.1 20.4 16.1 23.5C16.1 25.8 16.9 27.7 18.4 29.1C19.9 30.5 22.3 31.6 25.7 32.4L30.1 33.4C31.8 33.8 33 34.3 33.8 34.9C34.6 35.5 35 36.4 35 37.5C35 38.8 34.4 39.9 33.2 40.7C32 41.5 30.4 41.9 28.3 41.9C24.6 41.9 21.4 40.4 18.8 37.4L18 42Z" fill="#121717"/>
  <circle cx="47.5" cy="47.5" r="4.5" fill="#121717"/>
</svg>
